<svg viewBox="0 0 120 120" fill="none" xmlns="http://www.w3.org/2000/svg">
  <path d="M20 60C20 40 30 30 50 30C60 30 70 35 75 45C75 35 85 30 100 30C115 30 125 40 125 60C125 70 120 80 110 85" stroke="url(#heroLogoGradient)" stroke-width="6" stroke-linecap="round" stroke-linejoin="round" fill="none"/>
  <path d="M20 90C20 110 30 120 50 120C60 120 70 115 75 105C75 115 85 120 100 120C115 120 125 110 125 90C125 80 120 70 110 65" stroke="url(#heroLogoGradient)" stroke-width="6" stroke-linecap="round" stroke-linejoin="round" fill="none"/>
  <defs>
    <linearGradient id="heroLogoGradient" x1="0%" y1="0%" x2="100%" y2="100%">
      <stop offset="0%" style="stop-color:#00A37F;stop-opacity:1" />
      <stop offset="50%" style="stop-color:#10b981;stop-opacity:1" />
      <stop offset="100%" style="stop-color:#3b82f6;stop-opacity:1" />
    </linearGradient>
  </defs>
</svg>
